# Blender 3.4.1
# www.blender.org
o Cube
v -0.271970 -0.500000 0.271970
v -0.271970 -0.271970 0.500000
v -0.500000 -0.271970 0.271970
v -0.271970 -0.469536 0.385835
v -0.385835 -0.469536 0.271970
v -0.381016 -0.439944 0.381016
v -0.385835 -0.271970 0.469536
v -0.271970 -0.385835 0.469536
v -0.381016 -0.381016 0.439944
v -0.469536 -0.385835 0.271970
v -0.469536 -0.271970 0.385835
v -0.439944 -0.381016 0.381016
v -0.271970 0.271970 0.500000
v -0.271970 0.500000 0.271970
v -0.500000 0.271970 0.271970
v -0.271970 0.385835 0.469536
v -0.385835 0.271970 0.469536
v -0.381016 0.381016 0.439944
v -0.385835 0.469536 0.271970
v -0.271970 0.469536 0.385835
v -0.381016 0.439944 0.381016
v -0.469536 0.271970 0.385835
v -0.469536 0.385835 0.271970
v -0.439944 0.381016 0.381016
v -0.271970 -0.500000 -0.271970
v -0.500000 -0.271970 -0.271970
v -0.271970 -0.271970 -0.500000
v -0.385835 -0.469536 -0.271970
v -0.271970 -0.469536 -0.385835
v -0.381016 -0.439944 -0.381016
v -0.469536 -0.271970 -0.385835
v -0.469536 -0.385835 -0.271970
v -0.439944 -0.381016 -0.381016
v -0.271970 -0.385835 -0.469536
v -0.385835 -0.271970 -0.469536
v -0.381016 -0.381016 -0.439944
v -0.271970 0.500000 -0.271970
v -0.271970 0.271970 -0.500000
v -0.500000 0.271970 -0.271970
v -0.271970 0.469536 -0.385835
v -0.385835 0.469536 -0.271970
v -0.381016 0.439944 -0.381016
v -0.385835 0.271970 -0.469536
v -0.271970 0.385835 -0.469536
v -0.381016 0.381016 -0.439944
v -0.469536 0.385835 -0.271970
v -0.469536 0.271970 -0.385835
v -0.439944 0.381016 -0.381016
v 0.271970 -0.500000 0.271970
v 0.500000 -0.271970 0.271970
v 0.271970 -0.271970 0.500000
v 0.385835 -0.469536 0.271970
v 0.271970 -0.469536 0.385835
v 0.381016 -0.439944 0.381016
v 0.469536 -0.271970 0.385835
v 0.469536 -0.385835 0.271970
v 0.439944 -0.381016 0.381016
v 0.271970 -0.385835 0.469536
v 0.385835 -0.271970 0.469536
v 0.381016 -0.381016 0.439944
v 0.271970 0.500000 0.271970
v 0.271970 0.271970 0.500000
v 0.500000 0.271970 0.271970
v 0.271970 0.469536 0.385835
v 0.385835 0.469536 0.271970
v 0.381016 0.439944 0.381016
v 0.385835 0.271970 0.469536
v 0.271970 0.385835 0.469536
v 0.381016 0.381016 0.439944
v 0.469536 0.385835 0.271970
v 0.469536 0.271970 0.385835
v 0.439944 0.381016 0.381016
v 0.271970 -0.500000 -0.271970
v 0.271970 -0.271970 -0.500000
v 0.500000 -0.271970 -0.271970
v 0.271970 -0.469536 -0.385835
v 0.385835 -0.469536 -0.271970
v 0.381016 -0.439944 -0.381016
v 0.385835 -0.271970 -0.469536
v 0.271970 -0.385835 -0.469536
v 0.381016 -0.381016 -0.439944
v 0.469536 -0.385835 -0.271970
v 0.469536 -0.271970 -0.385835
v 0.439944 -0.381016 -0.381016
v 0.271970 0.500000 -0.271970
v 0.500000 0.271970 -0.271970
v 0.271970 0.271970 -0.500000
v 0.385835 0.469536 -0.271970
v 0.271970 0.469536 -0.385835
v 0.381016 0.439944 -0.381016
v 0.469536 0.271970 -0.385835
v 0.469536 0.385835 -0.271970
v 0.439944 0.381016 -0.381016
v 0.271970 0.385835 -0.469536
v 0.385835 0.271970 -0.469536
v 0.381016 0.381016 -0.439944
v 0.000000 -0.500000 -0.271970
v 0.000000 -0.469536 -0.385835
v 0.000000 -0.385835 -0.469536
v 0.000000 -0.271970 -0.500000
v 0.000000 0.500000 -0.271970
v 0.000000 0.469536 -0.385835
v 0.000000 0.385835 -0.469536
v 0.000000 0.271970 -0.500000
v 0.000000 -0.500000 0.271970
v 0.000000 -0.469536 0.385835
v 0.000000 -0.385835 0.469536
v 0.000000 -0.271970 0.500000
v 0.000000 0.500000 0.271970
v 0.000000 0.469536 0.385835
v 0.000000 0.385835 0.469536
v 0.000000 0.271970 0.500000
v -0.271970 -0.500000 0.000000
v -0.385835 -0.469536 0.000000
v -0.469536 -0.385835 0.000000
v -0.500000 -0.271970 0.000000
v -0.271970 0.500000 0.000000
v -0.385835 0.469536 0.000000
v -0.469536 0.385835 0.000000
v -0.500000 0.271970 0.000000
v 0.271970 -0.500000 0.000000
v 0.385835 -0.469536 0.000000
v 0.469536 -0.385835 0.000000
v 0.500000 -0.271970 0.000000
v 0.271970 0.500000 0.000000
v 0.385835 0.469536 0.000000
v 0.469536 0.385835 0.000000
v 0.500000 0.271970 0.000000
v 0.000000 -0.500000 0.000000
v 0.000000 0.500000 0.000000
vn -0.0000 -0.1303 0.9915
vn -0.0000 0.1303 0.9915
vn -0.1296 0.1296 0.9831
vn -0.1296 -0.1296 0.9831
vn 0.9915 -0.1303 -0.0000
vn 0.9915 0.1303 -0.0000
vn 0.9831 0.1296 0.1296
vn 0.9831 -0.1296 0.1296
vn -0.0000 1.0000 -0.0000
vn -0.1303 0.9915 -0.0000
vn -0.1296 0.9831 0.1296
vn -0.0000 0.9915 0.1303
vn -0.9915 -0.1303 -0.0000
vn -0.9915 0.1303 -0.0000
vn -0.9831 0.1296 -0.1296
vn -0.9831 -0.1296 -0.1296
vn -0.0000 -0.1303 -0.9915
vn -0.0000 0.1303 -0.9915
vn 0.1296 0.1296 -0.9831
vn 0.1296 -0.1296 -0.9831
vn -0.1296 -0.9831 0.1296
vn -0.1216 -0.8623 0.4915
vn -0.4473 -0.7744 0.4473
vn -0.4915 -0.8623 0.1216
vn -0.1216 -0.4915 0.8623
vn -0.4473 -0.4473 0.7744
vn -0.4915 -0.1216 0.8623
vn -0.8623 -0.1216 0.4915
vn -0.7744 -0.4473 0.4473
vn -0.9831 -0.1296 0.1296
vn -0.8623 -0.4915 0.1216
vn -0.1216 0.4915 0.8623
vn -0.4473 0.4473 0.7744
vn -0.4915 0.1216 0.8623
vn -0.1216 0.8623 0.4915
vn -0.4473 0.7744 0.4473
vn -0.4915 0.8623 0.1216
vn -0.8623 0.4915 0.1216
vn -0.7744 0.4473 0.4473
vn -0.9831 0.1296 0.1296
vn -0.8623 0.1216 0.4915
vn -0.1296 -0.9831 -0.1296
vn -0.4915 -0.8623 -0.1216
vn -0.4473 -0.7744 -0.4473
vn -0.1216 -0.8623 -0.4915
vn -0.8623 -0.4915 -0.1216
vn -0.7744 -0.4473 -0.4473
vn -0.8623 -0.1216 -0.4915
vn -0.4915 -0.1216 -0.8623
vn -0.4473 -0.4473 -0.7744
vn -0.1296 -0.1296 -0.9831
vn -0.1216 -0.4915 -0.8623
vn -0.1296 0.9831 -0.1296
vn -0.1216 0.8623 -0.4915
vn -0.4473 0.7744 -0.4473
vn -0.4915 0.8623 -0.1216
vn -0.1216 0.4915 -0.8623
vn -0.4473 0.4473 -0.7744
vn -0.1296 0.1296 -0.9831
vn -0.4915 0.1216 -0.8623
vn -0.8623 0.1216 -0.4915
vn -0.7744 0.4473 -0.4473
vn -0.8623 0.4915 -0.1216
vn 0.1296 -0.9831 0.1296
vn 0.4915 -0.8623 0.1216
vn 0.4473 -0.7744 0.4473
vn 0.1216 -0.8623 0.4915
vn 0.8623 -0.4915 0.1216
vn 0.7744 -0.4473 0.4473
vn 0.8623 -0.1216 0.4915
vn 0.4915 -0.1216 0.8623
vn 0.4473 -0.4473 0.7744
vn 0.1296 -0.1296 0.9831
vn 0.1216 -0.4915 0.8623
vn 0.1296 0.9831 0.1296
vn 0.1216 0.8623 0.4915
vn 0.4473 0.7744 0.4473
vn 0.4915 0.8623 0.1216
vn 0.1216 0.4915 0.8623
vn 0.4473 0.4473 0.7744
vn 0.1296 0.1296 0.9831
vn 0.4915 0.1216 0.8623
vn 0.8623 0.1216 0.4915
vn 0.7744 0.4473 0.4473
vn 0.8623 0.4915 0.1216
vn 0.1296 -0.9831 -0.1296
vn 0.1216 -0.8623 -0.4915
vn 0.4473 -0.7744 -0.4473
vn 0.4915 -0.8623 -0.1216
vn 0.1216 -0.4915 -0.8623
vn 0.4473 -0.4473 -0.7744
vn 0.4915 -0.1216 -0.8623
vn 0.8623 -0.1216 -0.4915
vn 0.7744 -0.4473 -0.4473
vn 0.9831 -0.1296 -0.1296
vn 0.8623 -0.4915 -0.1216
vn 0.1296 0.9831 -0.1296
vn 0.4915 0.8623 -0.1216
vn 0.4473 0.7744 -0.4473
vn 0.1216 0.8623 -0.4915
vn 0.8623 0.4915 -0.1216
vn 0.7744 0.4473 -0.4473
vn 0.9831 0.1296 -0.1296
vn 0.8623 0.1216 -0.4915
vn 0.4915 0.1216 -0.8623
vn 0.4473 0.4473 -0.7744
vn 0.1216 0.4915 -0.8623
vn -0.1303 -0.9915 -0.0000
vn -0.4998 -0.8661 -0.0000
vn -0.8661 -0.4998 -0.0000
vn -0.4998 0.8661 -0.0000
vn -0.8661 0.4998 -0.0000
vn -0.0000 -0.9915 -0.1303
vn -0.0000 -0.8661 -0.4998
vn -0.0000 -0.4998 -0.8661
vn -0.0000 0.9915 -0.1303
vn -0.0000 0.8661 -0.4998
vn -0.0000 0.4998 -0.8661
vn 0.1303 -0.9915 -0.0000
vn 0.4998 -0.8661 -0.0000
vn 0.8661 -0.4998 -0.0000
vn 0.1303 0.9915 -0.0000
vn 0.4998 0.8661 -0.0000
vn 0.8661 0.4998 -0.0000
vn -0.0000 -0.9915 0.1303
vn -0.0000 -0.8661 0.4998
vn -0.0000 -0.4998 0.8661
vn -0.0000 0.8661 0.4998
vn -0.0000 0.4998 0.8661
vn -0.0000 -1.0000 -0.0000
vt 0.182008 0.692992
vt 0.432008 0.942993
vt 0.432008 0.057008
vt 0.182008 0.721459
vt 0.153541 0.692992
vt 0.154746 0.720254
vt 0.432008 1.000000
vt 0.432008 0.000000
vt 0.375000 0.942992
vt 0.182008 0.750000
vt 0.375000 0.970254
vt 0.375000 0.000000
vt 0.154746 0.750000
vt 0.125000 0.692992
vt 0.375000 0.057008
vt 0.432008 0.028541
vt 0.375000 0.029746
vt 0.125000 0.720254
vt 0.567992 0.942992
vt 0.817992 0.692992
vt 0.567992 0.057008
vt 0.596459 0.942992
vt 0.567992 1.000000
vt 0.567992 0.000000
vt 0.595254 1.000000
vt 0.595254 0.000000
vt 0.625000 0.057008
vt 0.875000 0.692992
vt 0.817992 0.750000
vt 0.625000 0.942992
vt 0.625000 1.000000
vt 0.875000 0.720254
vt 0.625000 0.029746
vt 0.567992 0.028541
vt 0.596459 0.057008
vt 0.595254 0.029746
vt 0.182008 0.557008
vt 0.432008 0.192992
vt 0.432008 0.307008
vt 0.153541 0.557008
vt 0.182008 0.528541
vt 0.154746 0.529746
vt 0.432008 0.221459
vt 0.375000 0.192992
vt 0.125000 0.557008
vt 0.375000 0.220254
vt 0.125000 0.529746
vt 0.182008 0.500000
vt 0.375000 0.307008
vt 0.432008 0.278541
vt 0.375000 0.279746
vt 0.154746 0.500000
vt 0.817992 0.557008
vt 0.567992 0.307008
vt 0.567992 0.192992
vt 0.625000 0.307008
vt 0.817992 0.500000
vt 0.875000 0.557008
vt 0.625000 0.192992
vt 0.875000 0.529746
vt 0.625000 0.250000
vt 0.625000 0.220254
vt 0.567992 0.278541
vt 0.596459 0.307008
vt 0.595254 0.279746
vt 0.595254 0.234986
vt 0.596459 0.192992
vt 0.567992 0.221459
vt 0.595254 0.220254
vt 0.317992 0.692992
vt 0.432008 0.692992
vt 0.432008 0.807008
vt 0.346459 0.692992
vt 0.317992 0.721459
vt 0.345254 0.720254
vt 0.432008 0.721459
vt 0.403541 0.692992
vt 0.404746 0.720254
vt 0.359986 0.720254
vt 0.317992 0.750000
vt 0.375000 0.807008
vt 0.432008 0.778541
vt 0.375000 0.779746
vt 0.345254 0.750000
vt 0.682008 0.692992
vt 0.567992 0.807008
vt 0.567992 0.692992
vt 0.625000 0.807008
vt 0.682008 0.750000
vt 0.653541 0.692992
vt 0.654746 0.750000
vt 0.625000 0.779746
vt 0.567992 0.778541
vt 0.596459 0.807008
vt 0.595254 0.779746
vt 0.596459 0.692992
vt 0.567992 0.721459
vt 0.595254 0.720254
vt 0.595254 0.765014
vt 0.317992 0.557008
vt 0.432008 0.442992
vt 0.432008 0.557008
vt 0.317992 0.528541
vt 0.346459 0.557008
vt 0.345254 0.529746
vt 0.432008 0.471459
vt 0.375000 0.442992
vt 0.317992 0.500000
vt 0.375000 0.470254
vt 0.345254 0.500000
vt 0.403541 0.557008
vt 0.432008 0.528541
vt 0.404746 0.529746
vt 0.359986 0.529746
vt 0.682008 0.557008
vt 0.567992 0.557008
vt 0.567992 0.442992
vt 0.653541 0.557008
vt 0.682008 0.500000
vt 0.625000 0.442992
vt 0.654746 0.500000
vt 0.625000 0.470254
vt 0.567992 0.528541
vt 0.596459 0.557008
vt 0.595254 0.529746
vt 0.595254 0.484986
vt 0.596459 0.442992
vt 0.567992 0.471459
vt 0.595254 0.470254
vt 0.250000 0.557008
vt 0.250000 0.528541
vt 0.375000 0.375000
vt 0.250000 0.500000
vt 0.432008 0.375000
vt 0.750000 0.557008
vt 0.625000 0.375000
vt 0.750000 0.500000
vt 0.596459 0.375000
vt 0.567992 0.375000
vt 0.250000 0.692992
vt 0.250000 0.721459
vt 0.375000 0.875000
vt 0.250000 0.750000
vt 0.432008 0.875000
vt 0.750000 0.692992
vt 0.625000 0.875000
vt 0.750000 0.750000
vt 0.596459 0.875000
vt 0.567992 0.875000
vt 0.182008 0.625000
vt 0.153541 0.625000
vt 0.375000 0.125000
vt 0.125000 0.625000
vt 0.432008 0.125000
vt 0.817992 0.625000
vt 0.625000 0.125000
vt 0.875000 0.625000
vt 0.596459 0.125000
vt 0.567992 0.125000
vt 0.317992 0.625000
vt 0.346459 0.625000
vt 0.403541 0.625000
vt 0.432008 0.625000
vt 0.682008 0.625000
vt 0.653541 0.625000
vt 0.596459 0.625000
vt 0.567992 0.625000
vt 0.250000 0.625000
vt 0.750000 0.625000
s 1
f 108/144/1 112/149/2 13/19/3 2/2/4
f 124/163/5 128/167/6 63/87/7 50/71/8
f 130/169/9 117/155/10 14/20/11 109/145/12
f 116/154/13 120/159/14 39/55/15 26/38/16
f 100/134/17 104/139/18 87/117/19 74/101/20
f 1/1/21 4/4/22 6/6/23 5/5/24
f 4/4/22 8/10/25 9/13/26 6/6/23
f 2/2/4 7/7/27 9/11/26 8/9/25
f 7/8/27 11/16/28 12/17/29 9/12/26
f 3/3/30 10/15/31 12/17/29 11/16/28
f 10/14/31 5/5/24 6/6/23 12/18/29
f 6/6/23 9/13/26 12/18/29
f 13/19/3 16/22/32 18/25/33 17/23/34
f 16/22/32 20/30/35 21/31/36 18/25/33
f 14/20/11 19/28/37 21/32/36 20/29/35
f 19/27/37 23/35/38 24/36/39 21/33/36
f 15/21/40 22/34/41 24/36/39 23/35/38
f 22/34/41 17/24/34 18/26/33 24/36/39
f 18/26/33 21/33/36 24/36/39
f 25/37/42 28/40/43 30/42/44 29/41/45
f 28/40/43 32/45/46 33/47/47 30/42/44
f 26/38/16 31/43/48 33/46/47 32/44/46
f 31/43/48 35/50/49 36/51/50 33/46/47
f 27/39/51 34/49/52 36/51/50 35/50/49
f 34/48/52 29/41/45 30/42/44 36/52/50
f 30/42/44 33/47/47 36/52/50
f 37/53/53 40/57/54 42/60/55 41/58/56
f 40/56/54 44/64/57 45/65/58 42/61/55
f 38/54/59 43/63/60 45/65/58 44/64/57
f 43/63/60 47/68/61 48/69/62 45/65/58
f 39/55/15 46/67/63 48/69/62 47/68/61
f 46/67/63 41/59/56 42/62/55 48/69/62
f 42/62/55 45/66/58 48/69/62
f 49/70/64 52/73/65 54/75/66 53/74/67
f 52/73/65 56/77/68 57/78/69 54/75/66
f 50/71/8 55/76/70 57/78/69 56/77/68
f 55/76/70 59/82/71 60/83/72 57/78/69
f 51/72/73 58/81/74 60/83/72 59/82/71
f 58/80/74 53/74/67 54/75/66 60/84/72
f 54/75/66 57/79/69 60/84/72
f 61/85/75 64/89/76 66/91/77 65/90/78
f 64/88/76 68/94/79 69/95/80 66/92/77
f 62/86/81 67/93/82 69/95/80 68/94/79
f 67/93/82 71/97/83 72/98/84 69/95/80
f 63/87/7 70/96/85 72/98/84 71/97/83
f 70/96/85 65/90/78 66/91/77 72/98/84
f 66/92/77 69/95/80 72/99/84
f 73/100/86 76/103/87 78/105/88 77/104/89
f 76/103/87 80/108/90 81/110/91 78/105/88
f 74/101/20 79/106/92 81/109/91 80/107/90
f 79/106/92 83/112/93 84/113/94 81/109/91
f 75/102/95 82/111/96 84/113/94 83/112/93
f 82/111/96 77/104/89 78/105/88 84/113/94
f 78/105/88 81/110/91 84/114/94
f 85/115/97 88/118/98 90/121/99 89/119/100
f 88/118/98 92/124/101 93/125/102 90/121/99
f 86/116/103 91/123/104 93/125/102 92/124/101
f 91/123/104 95/128/105 96/129/106 93/125/102
f 87/117/19 94/127/107 96/129/106 95/128/105
f 94/127/107 89/120/100 90/122/99 96/129/106
f 90/122/99 93/126/102 96/129/106
f 113/150/108 1/1/21 5/5/24 114/151/109
f 114/151/109 5/5/24 10/14/31 115/153/110
f 115/152/110 10/15/31 3/3/30 116/154/13
f 2/2/4 13/19/3 17/23/34 7/7/27
f 7/8/27 17/24/34 22/34/41 11/16/28
f 11/16/28 22/34/41 15/21/40 3/3/30
f 117/155/10 37/53/53 41/58/56 118/157/111
f 118/156/111 41/59/56 46/67/63 119/158/112
f 119/158/112 46/67/63 39/55/15 120/159/14
f 38/54/59 27/39/51 35/50/49 43/63/60
f 43/63/60 35/50/49 31/43/48 47/68/61
f 47/68/61 31/43/48 26/38/16 39/55/15
f 97/130/113 25/37/42 29/41/45 98/131/114
f 98/131/114 29/41/45 34/48/52 99/133/115
f 99/132/115 34/49/52 27/39/51 100/134/17
f 101/135/116 85/115/97 89/119/100 102/137/117
f 102/136/117 89/120/100 94/127/107 103/138/118
f 103/138/118 94/127/107 87/117/19 104/139/18
f 86/116/103 75/102/95 83/112/93 91/123/104
f 91/123/104 83/112/93 79/106/92 95/128/105
f 95/128/105 79/106/92 74/101/20 87/117/19
f 121/160/119 73/100/86 77/104/89 122/161/120
f 122/161/120 77/104/89 82/111/96 123/162/121
f 123/162/121 82/111/96 75/102/95 124/163/5
f 125/164/122 61/85/75 65/90/78 126/165/123
f 126/165/123 65/90/78 70/96/85 127/166/124
f 127/166/124 70/96/85 63/87/7 128/167/6
f 62/86/81 51/72/73 59/82/71 67/93/82
f 67/93/82 59/82/71 55/76/70 71/97/83
f 71/97/83 55/76/70 50/71/8 63/87/7
f 105/140/125 49/70/64 53/74/67 106/141/126
f 106/141/126 53/74/67 58/80/74 107/143/127
f 107/142/127 58/81/74 51/72/73 108/144/1
f 109/145/12 14/20/11 20/29/35 110/147/128
f 110/146/128 20/30/35 16/22/32 111/148/129
f 111/148/129 16/22/32 13/19/3 112/149/2
f 129/168/130 121/160/119 49/70/64 105/140/125
f 113/150/108 129/168/130 105/140/125 1/1/21
f 68/94/79 111/148/129 112/149/2 62/86/81
f 64/88/76 110/146/128 111/148/129 68/94/79
f 61/85/75 109/145/12 110/147/128 64/89/76
f 8/9/25 107/142/127 108/144/1 2/2/4
f 4/4/22 106/141/126 107/143/127 8/10/25
f 1/1/21 105/140/125 106/141/126 4/4/22
f 44/64/57 103/138/118 104/139/18 38/54/59
f 40/56/54 102/136/117 103/138/118 44/64/57
f 37/53/53 101/135/116 102/137/117 40/57/54
f 80/107/90 99/132/115 100/134/17 74/101/20
f 76/103/87 98/131/114 99/133/115 80/108/90
f 73/100/86 97/130/113 98/131/114 76/103/87
f 27/39/51 38/54/59 104/139/18 100/134/17
f 125/164/122 130/169/9 109/145/12 61/85/75
f 51/72/73 62/86/81 112/149/2 108/144/1
f 85/115/97 101/135/116 130/169/9 125/164/122
f 25/37/42 97/130/113 129/168/130 113/150/108
f 97/130/113 73/100/86 121/160/119 129/168/130
f 92/124/101 127/166/124 128/167/6 86/116/103
f 88/118/98 126/165/123 127/166/124 92/124/101
f 85/115/97 125/164/122 126/165/123 88/118/98
f 56/77/68 123/162/121 124/163/5 50/71/8
f 52/73/65 122/161/120 123/162/121 56/77/68
f 49/70/64 121/160/119 122/161/120 52/73/65
f 23/35/38 119/158/112 120/159/14 15/21/40
f 19/27/37 118/156/111 119/158/112 23/35/38
f 14/20/11 117/155/10 118/157/111 19/28/37
f 32/44/46 115/152/110 116/154/13 26/38/16
f 28/40/43 114/151/109 115/153/110 32/45/46
f 25/37/42 113/150/108 114/151/109 28/40/43
f 3/3/30 15/21/40 120/159/14 116/154/13
f 101/135/116 37/53/53 117/155/10 130/169/9
f 75/102/95 86/116/103 128/167/6 124/163/5
